<mxfile host="app.diagrams.net" agent="Mozilla/5.0 (Windows NT 10.0; Win64; x64) AppleWebKit/537.36 (KHTML, like Gecko) Chrome/129.0.0.0 Safari/537.36" version="24.7.7">
  <diagram name="PÃ¡gina-1" id="GlzgrCo3g9JidIIwA_8d">
    <mxGraphModel dx="1760" dy="868" grid="1" gridSize="10" guides="1" tooltips="1" connect="1" arrows="1" fold="1" page="1" pageScale="1" pageWidth="800" pageHeight="600" math="0" shadow="0">
      <root>
        <mxCell id="0" />
        <mxCell id="1" parent="0" />
        <mxCell id="X8p6t6ZJM3d1kmLYo2vl-3" style="edgeStyle=orthogonalEdgeStyle;rounded=0;orthogonalLoop=1;jettySize=auto;html=1;exitX=1;exitY=0.5;exitDx=0;exitDy=0;entryX=0;entryY=0.5;entryDx=0;entryDy=0;" edge="1" parent="1" source="X8p6t6ZJM3d1kmLYo2vl-1" target="X8p6t6ZJM3d1kmLYo2vl-2">
          <mxGeometry relative="1" as="geometry" />
        </mxCell>
        <mxCell id="X8p6t6ZJM3d1kmLYo2vl-16" style="edgeStyle=orthogonalEdgeStyle;rounded=0;orthogonalLoop=1;jettySize=auto;html=1;entryX=0.5;entryY=0;entryDx=0;entryDy=0;" edge="1" parent="1" source="X8p6t6ZJM3d1kmLYo2vl-1" target="X8p6t6ZJM3d1kmLYo2vl-14">
          <mxGeometry relative="1" as="geometry" />
        </mxCell>
        <mxCell id="X8p6t6ZJM3d1kmLYo2vl-33" style="edgeStyle=orthogonalEdgeStyle;rounded=0;orthogonalLoop=1;jettySize=auto;html=1;exitX=0.25;exitY=0;exitDx=0;exitDy=0;entryX=1;entryY=1;entryDx=0;entryDy=0;" edge="1" parent="1" source="X8p6t6ZJM3d1kmLYo2vl-1" target="X8p6t6ZJM3d1kmLYo2vl-27">
          <mxGeometry relative="1" as="geometry" />
        </mxCell>
        <mxCell id="X8p6t6ZJM3d1kmLYo2vl-38" style="edgeStyle=orthogonalEdgeStyle;rounded=0;orthogonalLoop=1;jettySize=auto;html=1;exitX=1;exitY=1;exitDx=0;exitDy=0;" edge="1" parent="1" source="X8p6t6ZJM3d1kmLYo2vl-1">
          <mxGeometry relative="1" as="geometry">
            <mxPoint x="820" y="290" as="targetPoint" />
            <Array as="points">
              <mxPoint x="695" y="230" />
              <mxPoint x="780" y="230" />
              <mxPoint x="780" y="290" />
            </Array>
          </mxGeometry>
        </mxCell>
        <mxCell id="X8p6t6ZJM3d1kmLYo2vl-1" value="Usuario" style="rounded=0;whiteSpace=wrap;html=1;" vertex="1" parent="1">
          <mxGeometry x="575" y="150" width="120" height="60" as="geometry" />
        </mxCell>
        <mxCell id="X8p6t6ZJM3d1kmLYo2vl-2" value="registra" style="rhombus;whiteSpace=wrap;html=1;" vertex="1" parent="1">
          <mxGeometry x="800" y="140" width="80" height="80" as="geometry" />
        </mxCell>
        <mxCell id="X8p6t6ZJM3d1kmLYo2vl-5" style="edgeStyle=orthogonalEdgeStyle;rounded=0;orthogonalLoop=1;jettySize=auto;html=1;exitX=0;exitY=0.5;exitDx=0;exitDy=0;entryX=1;entryY=0.5;entryDx=0;entryDy=0;strokeColor=default;curved=0;" edge="1" parent="1" source="X8p6t6ZJM3d1kmLYo2vl-4" target="X8p6t6ZJM3d1kmLYo2vl-2">
          <mxGeometry relative="1" as="geometry" />
        </mxCell>
        <mxCell id="X8p6t6ZJM3d1kmLYo2vl-53" style="edgeStyle=orthogonalEdgeStyle;rounded=0;orthogonalLoop=1;jettySize=auto;html=1;exitX=0.5;exitY=0;exitDx=0;exitDy=0;entryX=0.5;entryY=1;entryDx=0;entryDy=0;" edge="1" parent="1" source="X8p6t6ZJM3d1kmLYo2vl-4" target="X8p6t6ZJM3d1kmLYo2vl-44">
          <mxGeometry relative="1" as="geometry" />
        </mxCell>
        <mxCell id="X8p6t6ZJM3d1kmLYo2vl-56" style="edgeStyle=orthogonalEdgeStyle;rounded=0;orthogonalLoop=1;jettySize=auto;html=1;exitX=1;exitY=0.25;exitDx=0;exitDy=0;entryX=0;entryY=0.5;entryDx=0;entryDy=0;" edge="1" parent="1" source="X8p6t6ZJM3d1kmLYo2vl-4" target="X8p6t6ZJM3d1kmLYo2vl-48">
          <mxGeometry relative="1" as="geometry" />
        </mxCell>
        <mxCell id="X8p6t6ZJM3d1kmLYo2vl-57" style="edgeStyle=orthogonalEdgeStyle;rounded=0;orthogonalLoop=1;jettySize=auto;html=1;exitX=1;exitY=0.5;exitDx=0;exitDy=0;entryX=0;entryY=0.5;entryDx=0;entryDy=0;" edge="1" parent="1" source="X8p6t6ZJM3d1kmLYo2vl-4" target="X8p6t6ZJM3d1kmLYo2vl-49">
          <mxGeometry relative="1" as="geometry" />
        </mxCell>
        <mxCell id="X8p6t6ZJM3d1kmLYo2vl-58" style="edgeStyle=orthogonalEdgeStyle;rounded=0;orthogonalLoop=1;jettySize=auto;html=1;exitX=1;exitY=0.75;exitDx=0;exitDy=0;entryX=0;entryY=0.5;entryDx=0;entryDy=0;" edge="1" parent="1" source="X8p6t6ZJM3d1kmLYo2vl-4" target="X8p6t6ZJM3d1kmLYo2vl-50">
          <mxGeometry relative="1" as="geometry">
            <Array as="points">
              <mxPoint x="1160" y="195" />
              <mxPoint x="1160" y="220" />
              <mxPoint x="1210" y="220" />
            </Array>
          </mxGeometry>
        </mxCell>
        <mxCell id="X8p6t6ZJM3d1kmLYo2vl-59" style="edgeStyle=orthogonalEdgeStyle;rounded=0;orthogonalLoop=1;jettySize=auto;html=1;exitX=1;exitY=1;exitDx=0;exitDy=0;" edge="1" parent="1" source="X8p6t6ZJM3d1kmLYo2vl-4" target="X8p6t6ZJM3d1kmLYo2vl-51">
          <mxGeometry relative="1" as="geometry" />
        </mxCell>
        <mxCell id="X8p6t6ZJM3d1kmLYo2vl-4" value="Pagos" style="rounded=0;whiteSpace=wrap;html=1;" vertex="1" parent="1">
          <mxGeometry x="1010" y="150" width="120" height="60" as="geometry" />
        </mxCell>
        <mxCell id="X8p6t6ZJM3d1kmLYo2vl-9" style="edgeStyle=orthogonalEdgeStyle;rounded=0;orthogonalLoop=1;jettySize=auto;html=1;exitX=0;exitY=0;exitDx=25;exitDy=35;entryX=0.5;entryY=0;entryDx=0;entryDy=0;exitPerimeter=0;" edge="1" parent="1" source="X8p6t6ZJM3d1kmLYo2vl-11" target="X8p6t6ZJM3d1kmLYo2vl-7">
          <mxGeometry relative="1" as="geometry">
            <mxPoint x="630" y="340" as="sourcePoint" />
            <Array as="points">
              <mxPoint x="530" y="335" />
            </Array>
          </mxGeometry>
        </mxCell>
        <mxCell id="X8p6t6ZJM3d1kmLYo2vl-7" value="Admin" style="rounded=0;whiteSpace=wrap;html=1;" vertex="1" parent="1">
          <mxGeometry x="490" y="390" width="90" height="40" as="geometry" />
        </mxCell>
        <mxCell id="X8p6t6ZJM3d1kmLYo2vl-8" value="Superuser" style="rounded=0;whiteSpace=wrap;html=1;" vertex="1" parent="1">
          <mxGeometry x="680" y="390" width="90" height="40" as="geometry" />
        </mxCell>
        <mxCell id="X8p6t6ZJM3d1kmLYo2vl-37" style="edgeStyle=orthogonalEdgeStyle;rounded=0;orthogonalLoop=1;jettySize=auto;html=1;exitX=0;exitY=0;exitDx=52.5;exitDy=30;exitPerimeter=0;entryX=0;entryY=1;entryDx=0;entryDy=0;" edge="1" parent="1" source="X8p6t6ZJM3d1kmLYo2vl-11" target="X8p6t6ZJM3d1kmLYo2vl-36">
          <mxGeometry relative="1" as="geometry" />
        </mxCell>
        <mxCell id="X8p6t6ZJM3d1kmLYo2vl-11" value="Is_a" style="verticalLabelPosition=bottom;verticalAlign=top;html=1;shape=mxgraph.basic.acute_triangle;dx=0.5;" vertex="1" parent="1">
          <mxGeometry x="600" y="300" width="70" height="60" as="geometry" />
        </mxCell>
        <mxCell id="X8p6t6ZJM3d1kmLYo2vl-13" style="edgeStyle=orthogonalEdgeStyle;rounded=0;orthogonalLoop=1;jettySize=auto;html=1;exitX=0;exitY=0;exitDx=52.5;exitDy=30;exitPerimeter=0;entryX=0.552;entryY=-0.026;entryDx=0;entryDy=0;entryPerimeter=0;" edge="1" parent="1" source="X8p6t6ZJM3d1kmLYo2vl-11" target="X8p6t6ZJM3d1kmLYo2vl-8">
          <mxGeometry relative="1" as="geometry" />
        </mxCell>
        <mxCell id="X8p6t6ZJM3d1kmLYo2vl-18" style="edgeStyle=orthogonalEdgeStyle;rounded=0;orthogonalLoop=1;jettySize=auto;html=1;exitX=0.5;exitY=1;exitDx=0;exitDy=0;" edge="1" parent="1" source="X8p6t6ZJM3d1kmLYo2vl-14" target="X8p6t6ZJM3d1kmLYo2vl-17">
          <mxGeometry relative="1" as="geometry" />
        </mxCell>
        <mxCell id="X8p6t6ZJM3d1kmLYo2vl-14" value="realiza" style="rhombus;whiteSpace=wrap;html=1;" vertex="1" parent="1">
          <mxGeometry x="350" y="200" width="80" height="80" as="geometry" />
        </mxCell>
        <mxCell id="X8p6t6ZJM3d1kmLYo2vl-25" style="edgeStyle=orthogonalEdgeStyle;rounded=0;orthogonalLoop=1;jettySize=auto;html=1;exitX=0.5;exitY=1;exitDx=0;exitDy=0;" edge="1" parent="1" source="X8p6t6ZJM3d1kmLYo2vl-17" target="X8p6t6ZJM3d1kmLYo2vl-24">
          <mxGeometry relative="1" as="geometry" />
        </mxCell>
        <mxCell id="X8p6t6ZJM3d1kmLYo2vl-17" value="Login" style="rounded=0;whiteSpace=wrap;html=1;" vertex="1" parent="1">
          <mxGeometry x="330" y="330" width="120" height="60" as="geometry" />
        </mxCell>
        <mxCell id="X8p6t6ZJM3d1kmLYo2vl-19" value="M" style="text;html=1;align=center;verticalAlign=middle;resizable=0;points=[];autosize=1;strokeColor=none;fillColor=none;" vertex="1" parent="1">
          <mxGeometry x="350" y="300" width="30" height="30" as="geometry" />
        </mxCell>
        <mxCell id="X8p6t6ZJM3d1kmLYo2vl-20" value="1" style="text;html=1;align=center;verticalAlign=middle;resizable=0;points=[];autosize=1;strokeColor=none;fillColor=none;" vertex="1" parent="1">
          <mxGeometry x="545" y="150" width="30" height="30" as="geometry" />
        </mxCell>
        <mxCell id="X8p6t6ZJM3d1kmLYo2vl-22" style="edgeStyle=orthogonalEdgeStyle;rounded=0;orthogonalLoop=1;jettySize=auto;html=1;entryX=0;entryY=0;entryDx=35;entryDy=0;entryPerimeter=0;" edge="1" parent="1" source="X8p6t6ZJM3d1kmLYo2vl-1" target="X8p6t6ZJM3d1kmLYo2vl-11">
          <mxGeometry relative="1" as="geometry" />
        </mxCell>
        <mxCell id="X8p6t6ZJM3d1kmLYo2vl-23" value="1" style="text;html=1;align=center;verticalAlign=middle;resizable=0;points=[];autosize=1;strokeColor=none;fillColor=none;" vertex="1" parent="1">
          <mxGeometry x="697.5" y="150" width="30" height="30" as="geometry" />
        </mxCell>
        <mxCell id="X8p6t6ZJM3d1kmLYo2vl-24" value="Fecha" style="ellipse;whiteSpace=wrap;html=1;" vertex="1" parent="1">
          <mxGeometry x="357.5" y="430" width="65" height="30" as="geometry" />
        </mxCell>
        <mxCell id="X8p6t6ZJM3d1kmLYo2vl-26" value="id" style="ellipse;whiteSpace=wrap;html=1;" vertex="1" parent="1">
          <mxGeometry x="530" y="100" width="40" height="30" as="geometry" />
        </mxCell>
        <mxCell id="X8p6t6ZJM3d1kmLYo2vl-27" value="correo" style="ellipse;whiteSpace=wrap;html=1;" vertex="1" parent="1">
          <mxGeometry x="570" y="80" width="40" height="30" as="geometry" />
        </mxCell>
        <mxCell id="X8p6t6ZJM3d1kmLYo2vl-28" value="nombre" style="ellipse;whiteSpace=wrap;html=1;" vertex="1" parent="1">
          <mxGeometry x="620" y="70" width="50" height="30" as="geometry" />
        </mxCell>
        <mxCell id="X8p6t6ZJM3d1kmLYo2vl-29" value="contrasena" style="ellipse;whiteSpace=wrap;html=1;" vertex="1" parent="1">
          <mxGeometry x="680" y="80" width="65" height="40" as="geometry" />
        </mxCell>
        <mxCell id="X8p6t6ZJM3d1kmLYo2vl-30" style="edgeStyle=orthogonalEdgeStyle;rounded=0;orthogonalLoop=1;jettySize=auto;html=1;exitX=0.25;exitY=0;exitDx=0;exitDy=0;entryX=0.657;entryY=0.868;entryDx=0;entryDy=0;entryPerimeter=0;" edge="1" parent="1" source="X8p6t6ZJM3d1kmLYo2vl-1" target="X8p6t6ZJM3d1kmLYo2vl-26">
          <mxGeometry relative="1" as="geometry" />
        </mxCell>
        <mxCell id="X8p6t6ZJM3d1kmLYo2vl-31" style="edgeStyle=orthogonalEdgeStyle;rounded=0;orthogonalLoop=1;jettySize=auto;html=1;exitX=0.5;exitY=0;exitDx=0;exitDy=0;entryX=0.383;entryY=0.948;entryDx=0;entryDy=0;entryPerimeter=0;" edge="1" parent="1" source="X8p6t6ZJM3d1kmLYo2vl-1" target="X8p6t6ZJM3d1kmLYo2vl-28">
          <mxGeometry relative="1" as="geometry" />
        </mxCell>
        <mxCell id="X8p6t6ZJM3d1kmLYo2vl-32" style="edgeStyle=orthogonalEdgeStyle;rounded=0;orthogonalLoop=1;jettySize=auto;html=1;exitX=0.75;exitY=0;exitDx=0;exitDy=0;entryX=0.309;entryY=1.032;entryDx=0;entryDy=0;entryPerimeter=0;" edge="1" parent="1" source="X8p6t6ZJM3d1kmLYo2vl-1" target="X8p6t6ZJM3d1kmLYo2vl-29">
          <mxGeometry relative="1" as="geometry" />
        </mxCell>
        <mxCell id="X8p6t6ZJM3d1kmLYo2vl-36" value="rol" style="ellipse;whiteSpace=wrap;html=1;" vertex="1" parent="1">
          <mxGeometry x="670" y="270" width="40" height="30" as="geometry" />
        </mxCell>
        <mxCell id="X8p6t6ZJM3d1kmLYo2vl-43" style="edgeStyle=orthogonalEdgeStyle;rounded=0;orthogonalLoop=1;jettySize=auto;html=1;exitX=1;exitY=0.5;exitDx=0;exitDy=0;entryX=0.5;entryY=1;entryDx=0;entryDy=0;" edge="1" parent="1" source="X8p6t6ZJM3d1kmLYo2vl-39" target="X8p6t6ZJM3d1kmLYo2vl-4">
          <mxGeometry relative="1" as="geometry" />
        </mxCell>
        <mxCell id="X8p6t6ZJM3d1kmLYo2vl-39" value="desactiva" style="rhombus;whiteSpace=wrap;html=1;" vertex="1" parent="1">
          <mxGeometry x="820" y="250" width="80" height="80" as="geometry" />
        </mxCell>
        <mxCell id="X8p6t6ZJM3d1kmLYo2vl-40" value="1" style="text;html=1;align=center;verticalAlign=middle;resizable=0;points=[];autosize=1;strokeColor=none;fillColor=none;" vertex="1" parent="1">
          <mxGeometry x="695" y="198" width="30" height="30" as="geometry" />
        </mxCell>
        <mxCell id="X8p6t6ZJM3d1kmLYo2vl-41" value="M" style="text;html=1;align=center;verticalAlign=middle;resizable=0;points=[];autosize=1;strokeColor=none;fillColor=none;" vertex="1" parent="1">
          <mxGeometry x="985" y="148" width="30" height="30" as="geometry" />
        </mxCell>
        <mxCell id="X8p6t6ZJM3d1kmLYo2vl-42" value="M" style="text;html=1;align=center;verticalAlign=middle;resizable=0;points=[];autosize=1;strokeColor=none;fillColor=none;" vertex="1" parent="1">
          <mxGeometry x="980" y="178" width="30" height="30" as="geometry" />
        </mxCell>
        <mxCell id="X8p6t6ZJM3d1kmLYo2vl-44" value="id" style="ellipse;whiteSpace=wrap;html=1;" vertex="1" parent="1">
          <mxGeometry x="1070" y="85" width="30" height="30" as="geometry" />
        </mxCell>
        <mxCell id="X8p6t6ZJM3d1kmLYo2vl-46" value="fecha_carga" style="ellipse;whiteSpace=wrap;html=1;" vertex="1" parent="1">
          <mxGeometry x="1110" y="80" width="70" height="45" as="geometry" />
        </mxCell>
        <mxCell id="X8p6t6ZJM3d1kmLYo2vl-47" value="fecha_pago" style="ellipse;whiteSpace=wrap;html=1;" vertex="1" parent="1">
          <mxGeometry x="1180" y="110" width="70" height="35" as="geometry" />
        </mxCell>
        <mxCell id="X8p6t6ZJM3d1kmLYo2vl-48" value="ubicacion" style="ellipse;whiteSpace=wrap;html=1;" vertex="1" parent="1">
          <mxGeometry x="1200" y="150" width="70" height="30" as="geometry" />
        </mxCell>
        <mxCell id="X8p6t6ZJM3d1kmLYo2vl-49" value="descripcion" style="ellipse;whiteSpace=wrap;html=1;" vertex="1" parent="1">
          <mxGeometry x="1210" y="188" width="70" height="32" as="geometry" />
        </mxCell>
        <mxCell id="X8p6t6ZJM3d1kmLYo2vl-50" value="forma_pago" style="ellipse;whiteSpace=wrap;html=1;" vertex="1" parent="1">
          <mxGeometry x="1210" y="228" width="70" height="30" as="geometry" />
        </mxCell>
        <mxCell id="X8p6t6ZJM3d1kmLYo2vl-51" value="monto" style="ellipse;whiteSpace=wrap;html=1;" vertex="1" parent="1">
          <mxGeometry x="1150" y="250" width="50" height="30" as="geometry" />
        </mxCell>
        <mxCell id="X8p6t6ZJM3d1kmLYo2vl-52" value="activo" style="ellipse;whiteSpace=wrap;html=1;" vertex="1" parent="1">
          <mxGeometry x="1090" y="245" width="50" height="30" as="geometry" />
        </mxCell>
        <mxCell id="X8p6t6ZJM3d1kmLYo2vl-54" style="edgeStyle=orthogonalEdgeStyle;rounded=0;orthogonalLoop=1;jettySize=auto;html=1;exitX=0.75;exitY=0;exitDx=0;exitDy=0;entryX=0.348;entryY=0.896;entryDx=0;entryDy=0;entryPerimeter=0;" edge="1" parent="1" source="X8p6t6ZJM3d1kmLYo2vl-4" target="X8p6t6ZJM3d1kmLYo2vl-46">
          <mxGeometry relative="1" as="geometry" />
        </mxCell>
        <mxCell id="X8p6t6ZJM3d1kmLYo2vl-55" style="edgeStyle=orthogonalEdgeStyle;rounded=0;orthogonalLoop=1;jettySize=auto;html=1;exitX=1;exitY=0;exitDx=0;exitDy=0;entryX=0.035;entryY=0.727;entryDx=0;entryDy=0;entryPerimeter=0;" edge="1" parent="1" source="X8p6t6ZJM3d1kmLYo2vl-4" target="X8p6t6ZJM3d1kmLYo2vl-47">
          <mxGeometry relative="1" as="geometry">
            <Array as="points">
              <mxPoint x="1150" y="150" />
              <mxPoint x="1150" y="135" />
            </Array>
          </mxGeometry>
        </mxCell>
        <mxCell id="X8p6t6ZJM3d1kmLYo2vl-60" style="edgeStyle=orthogonalEdgeStyle;rounded=0;orthogonalLoop=1;jettySize=auto;html=1;exitX=0.75;exitY=1;exitDx=0;exitDy=0;entryX=0.316;entryY=0.098;entryDx=0;entryDy=0;entryPerimeter=0;" edge="1" parent="1" source="X8p6t6ZJM3d1kmLYo2vl-4" target="X8p6t6ZJM3d1kmLYo2vl-52">
          <mxGeometry relative="1" as="geometry" />
        </mxCell>
      </root>
    </mxGraphModel>
  </diagram>
</mxfile>
